<svg xmlns="http://www.w3.org/2000/svg" version="1.1" xmlns:xlink="http://www.w3.org/1999/xlink" xmlns:svgjs="http://svgjs.dev/svgjs" width="1026" height="520" preserveAspectRatio="none" viewBox="0 0 1026 520"><g mask="url(&quot;#SvgjsMask1120&quot;)" fill="none"><rect width="1026" height="520" x="0" y="0" fill="rgba(249, 250, 251, 1)"></rect><path d="M1008 365L705 668" stroke-width="8" stroke="url(&quot;#SvgjsLinearGradient1121&quot;)" stroke-linecap="round" class="TopRight"></path><path d="M989 165L1120 34" stroke-width="6" stroke="url(&quot;#SvgjsLinearGradient1122&quot;)" stroke-linecap="round" class="BottomLeft"></path><path d="M706 413L513 606" stroke-width="8" stroke="url(&quot;#SvgjsLinearGradient1121&quot;)" stroke-linecap="round" class="TopRight"></path><path d="M667 311L855 123" stroke-width="6" stroke="url(&quot;#SvgjsLinearGradient1122&quot;)" stroke-linecap="round" class="BottomLeft"></path><path d="M143 421L-111 675" stroke-width="6" stroke="url(&quot;#SvgjsLinearGradient1121&quot;)" stroke-linecap="round" class="TopRight"></path><path d="M102 398L358 142" stroke-width="6" stroke="url(&quot;#SvgjsLinearGradient1121&quot;)" stroke-linecap="round" class="TopRight"></path><path d="M997 153L1358 -208" stroke-width="6" stroke="url(&quot;#SvgjsLinearGradient1122&quot;)" stroke-linecap="round" class="BottomLeft"></path><path d="M43 91L-172 306" stroke-width="6" stroke="url(&quot;#SvgjsLinearGradient1121&quot;)" stroke-linecap="round" class="TopRight"></path><path d="M16 466L177 305" stroke-width="8" stroke="url(&quot;#SvgjsLinearGradient1121&quot;)" stroke-linecap="round" class="TopRight"></path><path d="M683 244L965 -38" stroke-width="8" stroke="url(&quot;#SvgjsLinearGradient1121&quot;)" stroke-linecap="round" class="TopRight"></path><path d="M410 108L582 -64" stroke-width="10" stroke="url(&quot;#SvgjsLinearGradient1121&quot;)" stroke-linecap="round" class="TopRight"></path><path d="M241 466L0 707" stroke-width="8" stroke="url(&quot;#SvgjsLinearGradient1121&quot;)" stroke-linecap="round" class="TopRight"></path><path d="M759 515L590 684" stroke-width="10" stroke="url(&quot;#SvgjsLinearGradient1121&quot;)" stroke-linecap="round" class="TopRight"></path><path d="M197 463L50 610" stroke-width="8" stroke="url(&quot;#SvgjsLinearGradient1121&quot;)" stroke-linecap="round" class="TopRight"></path><path d="M761 238L1146 -147" stroke-width="8" stroke="url(&quot;#SvgjsLinearGradient1122&quot;)" stroke-linecap="round" class="BottomLeft"></path><path d="M667 225L301 591" stroke-width="10" stroke="url(&quot;#SvgjsLinearGradient1121&quot;)" stroke-linecap="round" class="TopRight"></path><path d="M400 456L617 239" stroke-width="10" stroke="url(&quot;#SvgjsLinearGradient1121&quot;)" stroke-linecap="round" class="TopRight"></path><path d="M585 88L737 -64" stroke-width="6" stroke="url(&quot;#SvgjsLinearGradient1121&quot;)" stroke-linecap="round" class="TopRight"></path><path d="M477 159L843 -207" stroke-width="10" stroke="url(&quot;#SvgjsLinearGradient1121&quot;)" stroke-linecap="round" class="TopRight"></path><path d="M229 141L-10 380" stroke-width="10" stroke="url(&quot;#SvgjsLinearGradient1122&quot;)" stroke-linecap="round" class="BottomLeft"></path><path d="M886 366L1045 207" stroke-width="10" stroke="url(&quot;#SvgjsLinearGradient1121&quot;)" stroke-linecap="round" class="TopRight"></path><path d="M684 332L377 639" stroke-width="6" stroke="url(&quot;#SvgjsLinearGradient1121&quot;)" stroke-linecap="round" class="TopRight"></path><path d="M536 414L358 592" stroke-width="8" stroke="url(&quot;#SvgjsLinearGradient1121&quot;)" stroke-linecap="round" class="TopRight"></path><path d="M541 83L839 -215" stroke-width="10" stroke="url(&quot;#SvgjsLinearGradient1122&quot;)" stroke-linecap="round" class="BottomLeft"></path><path d="M779 245L1077 -53" stroke-width="8" stroke="url(&quot;#SvgjsLinearGradient1122&quot;)" stroke-linecap="round" class="BottomLeft"></path><path d="M904 248L646 506" stroke-width="8" stroke="url(&quot;#SvgjsLinearGradient1121&quot;)" stroke-linecap="round" class="TopRight"></path><path d="M451 435L298 588" stroke-width="6" stroke="url(&quot;#SvgjsLinearGradient1122&quot;)" stroke-linecap="round" class="BottomLeft"></path><path d="M14 361L-303 678" stroke-width="10" stroke="url(&quot;#SvgjsLinearGradient1122&quot;)" stroke-linecap="round" class="BottomLeft"></path><path d="M957 140L603 494" stroke-width="6" stroke="url(&quot;#SvgjsLinearGradient1121&quot;)" stroke-linecap="round" class="TopRight"></path></g><defs><mask id="SvgjsMask1120"><rect width="1026" height="520" fill="#ffffff"></rect></mask><linearGradient x1="0%" y1="100%" x2="100%" y2="0%" id="SvgjsLinearGradient1121"><stop stop-color="rgba(224, 242, 254, 0)" offset="0"></stop><stop stop-color="rgba(224, 242, 254, 1)" offset="1"></stop></linearGradient><linearGradient x1="100%" y1="0%" x2="0%" y2="100%" id="SvgjsLinearGradient1122"><stop stop-color="rgba(224, 242, 254, 0)" offset="0"></stop><stop stop-color="rgba(224, 242, 254, 1)" offset="1"></stop></linearGradient></defs></svg>