<svg xmlns="http://www.w3.org/2000/svg" version="1.1" xmlns:xlink="http://www.w3.org/1999/xlink" xmlns:svgjs="http://svgjs.dev/svgjs" width="1508" height="820" preserveAspectRatio="none" viewBox="0 0 1008 520"><g mask="url(&quot;#SvgjsMask1036&quot;)" fill="none"><rect width="1008" height="520" x="0" y="0" fill="rgba(255, 255, 255, 1)"></rect><path d="M397 3L193 207" stroke-width="10" stroke="url(&quot;#SvgjsLinearGradient1037&quot;)" stroke-linecap="round" class="TopRight"></path><path d="M691 401L1056 36" stroke-width="6" stroke="url(&quot;#SvgjsLinearGradient1037&quot;)" stroke-linecap="round" class="TopRight"></path><path d="M971 314L1279 6" stroke-width="10" stroke="url(&quot;#SvgjsLinearGradient1037&quot;)" stroke-linecap="round" class="TopRight"></path><path d="M602 277L240 639" stroke-width="6" stroke="url(&quot;#SvgjsLinearGradient1038&quot;)" stroke-linecap="round" class="BottomLeft"></path><path d="M102 357L455 4" stroke-width="8" stroke="url(&quot;#SvgjsLinearGradient1037&quot;)" stroke-linecap="round" class="TopRight"></path><path d="M936 475L1324 87" stroke-width="6" stroke="url(&quot;#SvgjsLinearGradient1038&quot;)" stroke-linecap="round" class="BottomLeft"></path><path d="M134 489L-196 819" stroke-width="10" stroke="url(&quot;#SvgjsLinearGradient1037&quot;)" stroke-linecap="round" class="TopRight"></path><path d="M229 298L381 146" stroke-width="10" stroke="url(&quot;#SvgjsLinearGradient1037&quot;)" stroke-linecap="round" class="TopRight"></path><path d="M43 65L363 -255" stroke-width="8" stroke="url(&quot;#SvgjsLinearGradient1038&quot;)" stroke-linecap="round" class="BottomLeft"></path><path d="M817 73L472 418" stroke-width="8" stroke="url(&quot;#SvgjsLinearGradient1038&quot;)" stroke-linecap="round" class="BottomLeft"></path><path d="M732 111L573 270" stroke-width="10" stroke="url(&quot;#SvgjsLinearGradient1037&quot;)" stroke-linecap="round" class="TopRight"></path><path d="M581 43L808 -184" stroke-width="10" stroke="url(&quot;#SvgjsLinearGradient1037&quot;)" stroke-linecap="round" class="TopRight"></path><path d="M489 67L710 -154" stroke-width="10" stroke="url(&quot;#SvgjsLinearGradient1037&quot;)" stroke-linecap="round" class="TopRight"></path><path d="M510 452L297 665" stroke-width="6" stroke="url(&quot;#SvgjsLinearGradient1038&quot;)" stroke-linecap="round" class="BottomLeft"></path><path d="M547 95L785 -143" stroke-width="6" stroke="url(&quot;#SvgjsLinearGradient1037&quot;)" stroke-linecap="round" class="TopRight"></path><path d="M58 435L257 236" stroke-width="10" stroke="url(&quot;#SvgjsLinearGradient1038&quot;)" stroke-linecap="round" class="BottomLeft"></path><path d="M647 265L351 561" stroke-width="6" stroke="url(&quot;#SvgjsLinearGradient1037&quot;)" stroke-linecap="round" class="TopRight"></path><path d="M888 83L1178 -207" stroke-width="8" stroke="url(&quot;#SvgjsLinearGradient1038&quot;)" stroke-linecap="round" class="BottomLeft"></path><path d="M383 517L87 813" stroke-width="6" stroke="url(&quot;#SvgjsLinearGradient1037&quot;)" stroke-linecap="round" class="TopRight"></path><path d="M816 295L1080 31" stroke-width="8" stroke="url(&quot;#SvgjsLinearGradient1038&quot;)" stroke-linecap="round" class="BottomLeft"></path><path d="M82 225L-239 546" stroke-width="6" stroke="url(&quot;#SvgjsLinearGradient1037&quot;)" stroke-linecap="round" class="TopRight"></path><path d="M258 92L-49 399" stroke-width="8" stroke="url(&quot;#SvgjsLinearGradient1038&quot;)" stroke-linecap="round" class="BottomLeft"></path><path d="M829 481L697 613" stroke-width="6" stroke="url(&quot;#SvgjsLinearGradient1037&quot;)" stroke-linecap="round" class="TopRight"></path><path d="M315 285L680 -80" stroke-width="8" stroke="url(&quot;#SvgjsLinearGradient1037&quot;)" stroke-linecap="round" class="TopRight"></path><path d="M569 119L311 377" stroke-width="10" stroke="url(&quot;#SvgjsLinearGradient1037&quot;)" stroke-linecap="round" class="TopRight"></path><path d="M685 22L403 304" stroke-width="10" stroke="url(&quot;#SvgjsLinearGradient1038&quot;)" stroke-linecap="round" class="BottomLeft"></path><path d="M131 113L417 -173" stroke-width="10" stroke="url(&quot;#SvgjsLinearGradient1038&quot;)" stroke-linecap="round" class="BottomLeft"></path><path d="M825 265L449 641" stroke-width="10" stroke="url(&quot;#SvgjsLinearGradient1038&quot;)" stroke-linecap="round" class="BottomLeft"></path><path d="M550 195L302 443" stroke-width="8" stroke="url(&quot;#SvgjsLinearGradient1038&quot;)" stroke-linecap="round" class="BottomLeft"></path></g><defs><mask id="SvgjsMask1036"><rect width="1008" height="520" fill="#ffffff"></rect></mask><linearGradient x1="0%" y1="100%" x2="100%" y2="0%" id="SvgjsLinearGradient1037"><stop stop-color="rgba(224, 242, 254, 0)" offset="0"></stop><stop stop-color="rgba(224, 242, 254, 1)" offset="1"></stop></linearGradient><linearGradient x1="100%" y1="0%" x2="0%" y2="100%" id="SvgjsLinearGradient1038"><stop stop-color="rgba(224, 242, 254, 0)" offset="0"></stop><stop stop-color="rgba(224, 242, 254, 1)" offset="1"></stop></linearGradient></defs></svg>
